<svg data-v-0dd9719b="" version="1.0" xmlns="http://www.w3.org/2000/svg" xmlns:xlink="http://www.w3.org/1999/xlink" width="100%" height="100%" viewBox="0 0 340.000000 250.000000" preserveAspectRatio="xMidYMid meet" color-interpolation-filters="sRGB" style="margin: auto;"> <rect data-v-0dd9719b="" x="0" y="0" width="100%" height="100%" fill="#fff" fill-opacity="1" class="background"></rect> <rect data-v-0dd9719b="" x="0" y="0" width="100%" height="100%" fill="url(#watermark)" fill-opacity="1" class="watermarklayer"></rect> <g data-v-0dd9719b="" fill="#333" class="icon-text-wrapper icon-svg-group iconsvg" transform="translate(46.5,97.64146614074707)"><g class="iconsvg-imagesvg" transform="translate(0,0)"><g><rect fill="#333" fill-opacity="0" stroke-width="2" x="0" y="0" width="60" height="54.71706716519995" class="image-rect"></rect> <svg x="0" y="0" width="60" height="54.71706716519995" filtersec="colorsb8841021522" class="image-svg-svg primary" style="overflow: visible;"><svg xmlns="http://www.w3.org/2000/svg" viewBox="0.007376670837402344 0.017479896545410156 109.63544464111328 99.98246765136719"><g fill-rule="evenodd"><path d="M46.12 21.84c-2.94-8.25-7.27-15.43-1.06-17.59C53.49 1.3 60.41-3 62.64 3.15c3 8.39 7.23 15.37 1.06 17.6L52.39 24.8c-10.91 3.9-8.55 23-5.62 31.19C54.16 76.67 23 87.73 15.59 67.14A16.58 16.58 0 0 1 25.61 46c3.09 0 23.98-14.41 20.51-24.16z" fill="#104e70"></path><path d="M83.51 43C82 51 84.92 71.28 93.82 73c8.39 1.62 17 1.62 15.69 8-1.83 9.17-1.67 16.89-8 15.7-8.37-1.59-16.91-1.65-15.69-8l2.28-11.82c2.18-11.39-15.46-19.05-24-20.7A16.53 16.53 0 0 1 51 36.77C55.1 15.24 87.68 21.51 83.51 43z" fill="#2491eb"></path><path d="M25.67 89.11c-6.16 7.08-10 13.8-14.81 9.58-7-6.13-13.74-9.91-9.57-14.79 4.8-5.62 9.76-14 14.8-9.58l9.08 7.9c8.74 7.57 24.23-3.87 29.9-10.44a16.58 16.58 0 0 1 23.38-1.65c16.57 14.44-5.21 39.37-21.72 25 2.5.04-23.48-14.74-31.06-6.02z" fill="#85c4f5"></path></g></svg></svg> <!----></g></g> <g transform="translate(67,8.558534622192383)"><g data-gra="path-name" fill-rule="" class="tp-name iconsvg-namesvg"><g transform="scale(1)"><g><path d="M3.94-37.6L0 0 25.36 0 27.15-5.28 5.89-5.28 8.76-32.32 29.97-32.32 30.53-37.6 3.94-37.6ZM34.52-37.6L30.53 0 35.96 0 38.11-20.85 51.58-20.85 49.38 0 54.71 0 57.47-26.18 38.67-26.18 39.9-37.6 34.52-37.6ZM57.47 0L60.24-26.12 84.42-26.12 82.42-7.63 82.11 0 77.45 0 77.35-2.61 71.92 0 57.47 0ZM65.05-20.8L63.36-5.28 72.43-5.28 77.09-7.68 78.42-20.8 65.05-20.8ZM98.86-26.12L105.67-26.12 90.92-11.27 89.74 0 84.42 0 87.13-26.12 92.46-26.12 91.69-18.7 98.86-26.12ZM120.12-26.12L126.93-26.12 112.18-11.27 111 0 105.67 0 108.39-26.12 113.72-26.12 112.95-18.7 120.12-26.12ZM126.93 0L129.65-26.12 153.47-26.12 150.65 0 126.93 0ZM134.51-20.8L132.82-5.28 145.89-5.28 147.52-20.8 134.51-20.8ZM156.28-26.12L153.47 0 158.84 0 161.05-20.8 174.11-20.8 171.86 0 177.29 0 180-26.12 156.28-26.12Z" transform="translate(0, 37.599998474121094)"></path></g> <!----> <!----> <!----> <!----> <!----> <!----> <!----></g></g> <!----></g></g><defs v-gra="od"></defs></svg>